<?xml version="1.0" standalone="no"?><!DOCTYPE svg PUBLIC "-//W3C//DTD SVG 1.1//EN" "http://www.w3.org/Graphics/SVG/1.1/DTD/svg11.dtd"><svg t="1554705495035" class="icon" style="" viewBox="0 0 1024 1024" version="1.1" xmlns="http://www.w3.org/2000/svg" p-id="2361" xmlns:xlink="http://www.w3.org/1999/xlink" width="200" height="200"><defs><style type="text/css"></style></defs><path d="M512 512m-512 0a512 512 0 1 0 1024 0 512 512 0 1 0-1024 0Z" fill="#00B9FC" fill-opacity=".2" p-id="2362"></path><path d="M512 512m-438.857143 0a438.857143 438.857143 0 1 0 877.714286 0 438.857143 438.857143 0 1 0-877.714286 0Z" fill="#00B9FC" p-id="2363"></path><path d="M334.367347 508.760816m18.912653 0l338.337959 0q18.912653 0 18.912653 18.912653l0 0.010449q0 18.912653-18.912653 18.912653l-338.337959 0q-18.912653 0-18.912653-18.912653l0-0.010449q0-18.912653 18.912653-18.912653Z" fill="#FFFFFF" p-id="2364"></path><path d="M509.910204 695.296V360.050939C509.910204 351.63951 518.332082 344.816327 528.718367 344.816327s18.808163 6.823184 18.808164 15.234612v335.245061c0 8.411429-8.421878 15.234612-18.808164 15.234612s-18.808163-6.823184-18.808163-15.234612z" fill="#FFFFFF" p-id="2365"></path></svg>